<svg xmlns="http://www.w3.org/2000/svg" viewBox="0 0 959.28 959.28"><defs><style>.cls-1{fill:#4ade80;}</style></defs><g id="Layer_2" data-name="Layer 2"><g id="Layer_1-2" data-name="Layer 1"><path class="cls-1" d="M479.64,0C214.74,0,0,214.74,0,479.64A477.82,477.82,0,0,0,46.7,686.33c20.51-25.57,40.71-51.4,61-77.16,2.38-3,4.68-6.1,7.09-9.09,10.67-13.28,13.4-25.8,1.78-41.13-16.78-22.14-20.88-46.77-7.75-72.91,1.64-3.27.07-8.32-.49-12.49-3.09-22.95-2.75-44.18,14.57-63.41,7.53-8.35,9.41-22.26,12.55-34,4.42-16.53,6.74-33.65,11.67-50,3.15-10.47,12.33-15.45,23.56-15.89,39-1.49,71.54-19.87,103.67-39.4q15.31-9.32,30.5-18.88a58.7,58.7,0,0,0,9.2-6.59c33.17-31.23,65.62-63.28,99.57-93.65,24.63-22,49.83-44.35,84.6-49.45,17.56-2.58,35.15-5,52.8-6.85,24.5-2.55,43,10.67,61.55,24a72.43,72.43,0,0,0,22.89,11.27c34.61,9.23,42.91,18.28,47.67,53.93,1.33,9.9,3.85,19.65,4.93,29.57.36,3.29-2.1,6.89-3.21,10.15,4.57,14.8,9.39,30.39,14.2,46l-4,2L672.12,255c-10,11.35-11.34,21.65-4,33.72,8.77,14.5,10.18,30.35,5.74,48.8l-10.36-9.74-14.58,10.53c3,13.63,6.42,28.75,9.79,43.87l-5,1.82-20.94-23-7.45,13.56-12.6-18.25c-.14,17.6-.26,33-.38,48.44l-4.22,1.51L587.8,377.4,585,378.56q-.25,12.44-.49,24.88L582,404.81l-21.55-31.5c1.33,17.74,9.14,34.46-1.2,52.22l-12.35-6.39c-1,6.87-1.86,13.2-2.86,20.3l-10.49-2.16c-.1,3.05-.3,5.87-.27,8.69.17,14.91-6.49,25-19.55,32.61-10.1,5.88-18.59,14.52-30.63,24.21,10.43,3.13,17.72,6,25.3,7.47,32.75,6.24,62.71,17.19,86.3,42.66,5.84,6.31,11.28,12.6,16.64,18.79,7.1,8.18,14,25.48,32.13,17.41,1.81-.8,6.07,3.91,9.4,3.82,5.38,1.12,11.5,1,16,3.63,9.55,5.64,17.84,13.47,27.53,18.79,3.09,1.7,9.51-.77,13.42-3,3.39-2,5.38-6.34,6.74-8.06l23.61,20.32,19.85-23.35c1.67,6.77,3.22,13.08,4.68,19l23.74,3a71.37,71.37,0,0,1,6-8.53c3.16-3.54,3.81-12.09,12.63-6.54,1,.63,7.1-6.82,12.9-12.57,1.61,11,2.05,20,4.49,28.4,1.33,4.6,6.19,8.1,9.18,12.3,2.81,3.94,7.75,8.38,7.42,12.21-2,23.37-4.31,46.83-8.84,69.8-1.32,6.73-9.23,13.66-15.85,17.59-44.12,26.2-90.56,43.09-143.49,39.12-47.42-3.56-95.07-4.09-142.62-5.68-24.83-.84-49.69-1.61-74.51-1.06-4.36.09-10.44,6-12.47,10.67-5.38,12.28-9.38,25.22-13.19,38.12-8.6,29.14-25.63,52.26-48.66,71.66-15.46,13-30.58,26.46-46.88,40.87-7.21-.25-14.43-.26-21.65-.09a478.47,478.47,0,0,0,166.81,29.82c264.9,0,479.64-214.74,479.64-479.64S744.54,0,479.64,0Z"/></g></g></svg>