<svg xmlns="http://www.w3.org/2000/svg" viewBox="0 0 779 929.87" style=""><defs><style>.cls-1{fill:none;stroke:#2bb673;stroke-miterlimit:10;stroke-width:3px;}.cls-2{fill:#2bb673;}</style></defs><g id="Layer_2" data-name="Layer 2"><g id="Layer_2-2" data-name="Layer 2"><path class="cls-1 zkVOUqyN_0" d="M71.74,820.74s16.15,2.81,22.5-9.44c0,0,2.16-6.9-2.13-12.77,0,0-7.35-2.55-11.43,0,0,0-12.77,6.08-14.81,15.42,0,0-5.9,10.61-1.16,22.36,0,0,2.69,5.88,6.78-1.78,0,0,9.26-17.71,9.45-25.28"></path><path class="cls-1 zkVOUqyN_1" d="M101.11,816.06s-5.17,12.48-4.09,15.4c0,0,9.19-13.37,10.72-12.17,0,0,2.56-2.29,3.32-.93,0,0-2.54,8.95,3.32,8.23,0,0,4.84,8.71,9.31,6.41,0,0,8.56-.71,7.54-7.63,0,0-.75-6.68-4.08-7.44,0,0-6.39-1.57-11,8.66"></path><path class="cls-1 zkVOUqyN_2" d="M131.23,825.37s8.09-.8,9.79-3.35,7-6.29,10.13-4.09c0,0,1.27,11.3-3.32,13.19,0,0-5.36,7.71-11.24-4.53"></path><path class="cls-1 zkVOUqyN_3" d="M149.57,829.64s-2.09,14.85-8.3,20.21c0,0-5.44,9.88-7.74,3.28,0,0-2.36-5.26,9.28-14.66,0,0,13.19-6.39,17.53-11.88,0,0,2-1.51,3.32-8.66"></path><path class="cls-1 zkVOUqyN_4" d="M160.34,826.59s1.79-1.19,0,4.53c0,0,11.13-17,13.79-12.76,0,0-1.79,6.68,2.29,8.23,0,0,3.71,3.47,7.66,1.56,0,0,9.58-3.71,8.81-7.92,0,0-.28-7.41-5.56-2.3,0,0-10.65,8.81-4.91,14.17,0,0,10.86,2.3,15.32-2.93,0,0-.91,8.22,6.26,2,.76-.68,7.28-8.55,7.15-12.53,0,0,7-4.74,7.27,1.51"></path><path class="cls-1 zkVOUqyN_5" d="M201.45,820.1s6.63-10.46,7.91,9.83c0,0,.89,8.94,10.34,0"></path><path class="cls-1 zkVOUqyN_6" d="M237.19,804.63s12.77-10,13.28-3.74c0,0-1.53,19.6-8.43,32.49"></path><path class="cls-1 zkVOUqyN_7" d="M241.79,818.72s22.46.52,30.89-6.9c0,0,8.31-6.26,3.9-15.65,0,0-9.26,2.82-14.11,25.08A18,18,0,0,0,267,833.91s7.24-.15,9-6.41"></path><path class="cls-1 zkVOUqyN_8" d="M283.66,828.15s8.68-.82,10.72-8.2c0,0-5.62-8.67-10.72,3.08,0,0-2.51,10.25,7.94,10.88,0,0,10.19-.06,14.53-15.55,0,0-9.44,34.93-17.23,37,0,0-9.73-4.78,14.73-22,0,0,21.13-6.56,20.88-13.43,0,0-5.62-5.38-11.75,6.64,0,0-2,10.9,16.35,4.53a30.36,30.36,0,0,0,6.38-13.19s-3.24,13.55-4.6,15.45c0,0,13.28-22.9,15.32-13.43,0,0-.51,9.5-4.08,14"></path><path class="cls-2 zkVOUqyN_9" d="M597,341.06V896.57a22.81,22.81,0,0,1-22.78,22.78H33.3a22.81,22.81,0,0,1-22.79-22.78V98.93A22.81,22.81,0,0,1,33.3,76.14H574.23a22.8,22.8,0,0,1,22,17c2.66-2.89,5.32-5.77,8-8.64a33.35,33.35,0,0,0-30-18.9H33.3A33.34,33.34,0,0,0,0,98.93V896.57a33.34,33.34,0,0,0,33.3,33.3H574.23a33.33,33.33,0,0,0,33.29-33.3V332.48Q602.38,336.93,597,341.06Z"></path><path class="cls-2 zkVOUqyN_10" width="269.95" height="9" d="M68.76 163.28 L338.71 163.28 L338.71 172.28 L68.76 172.28 Z"></path><path class="cls-2 zkVOUqyN_11" width="461.57" height="9" d="M72.98 259.69 L534.55 259.69 L534.55 268.69 L72.98 268.69 Z"></path><path class="cls-2 zkVOUqyN_12" width="461.57" height="9" d="M72.98 356.1 L534.55 356.1 L534.55 365.1 L72.98 365.1 Z"></path><path class="cls-2 zkVOUqyN_13" width="461.57" height="9" d="M68.76 445.04 L530.33 445.04 L530.33 454.04 L68.76 454.04 Z"></path><path class="cls-2 zkVOUqyN_14" width="461.57" height="9" d="M68.76 541.45 L530.33 541.45 L530.33 550.45 L68.76 550.45 Z"></path><path class="cls-2 zkVOUqyN_15" width="461.57" height="9" d="M63.34 637.87 L524.91 637.87 L524.91 646.87 L63.34 646.87 Z"></path><path class="cls-2 zkVOUqyN_16" width="289.05" height="5" d="M59.21 841.01 L348.26 841.01 L348.26 846.01 L59.21 846.01 Z"></path><path class="cls-2 zkVOUqyN_17" d="M336.28,602.22,68.76,334.49l63.46-63.3c1.63,1.84,3.73,4.47,6.09,6.83Q225.1,364.54,312,451c4.62,4.6,9.49,9,14.37,13.29,4.25,3.77,4.4,3.71,7.91-.62q52.85-65.1,105.67-130.22Q566.52,177.24,693.11,21c5.23-6.45,10.88-12.54,16.3-18.84,2.37-2.76,4.37-2.93,7.4-.42C735.53,17.29,754.49,32.51,773.23,48c7.6,6.29,7.38,6.45,1.19,14.08Q663.17,199.24,551.93,336.4q-106.17,131-212.3,262C338.61,599.61,337.51,600.8,336.28,602.22Z"></path><path class="cls-1 zkVOUqyN_18" d="M306.89,813.78L307.22,814.06L307.62,813.34L307.25,813.34L306.87,814.04L306.61,814.53L307.62,814.04L306.61,813.34"></path></g></g><style data-made-with="vivus-instant">.zkVOUqyN_0{stroke-dasharray:133 135;stroke-dashoffset:134;animation:zkVOUqyN_draw 2000ms linear 0ms forwards;}.zkVOUqyN_1{stroke-dasharray:96 98;stroke-dashoffset:97;animation:zkVOUqyN_draw 2000ms linear 0ms forwards;}.zkVOUqyN_2{stroke-dasharray:53 55;stroke-dashoffset:54;animation:zkVOUqyN_draw 2000ms linear 0ms forwards;}.zkVOUqyN_3{stroke-dasharray:83 85;stroke-dashoffset:84;animation:zkVOUqyN_draw 2000ms linear 0ms forwards;}.zkVOUqyN_4{stroke-dasharray:133 135;stroke-dashoffset:134;animation:zkVOUqyN_draw 2000ms linear 0ms forwards;}.zkVOUqyN_5{stroke-dasharray:33 35;stroke-dashoffset:34;animation:zkVOUqyN_draw 2000ms linear 0ms forwards;}.zkVOUqyN_6{stroke-dasharray:50 52;stroke-dashoffset:51;animation:zkVOUqyN_draw 2000ms linear 0ms forwards;}.zkVOUqyN_7{stroke-dasharray:105 107;stroke-dashoffset:106;animation:zkVOUqyN_draw 2000ms linear 0ms forwards;}.zkVOUqyN_8{stroke-dasharray:272 274;stroke-dashoffset:273;animation:zkVOUqyN_draw 2000ms linear 0ms forwards;}.zkVOUqyN_9{stroke-dasharray:5236 5238;stroke-dashoffset:5237;animation:zkVOUqyN_draw 2000ms linear 0ms forwards;}.zkVOUqyN_10{stroke-dasharray:558 560;stroke-dashoffset:559;animation:zkVOUqyN_draw 2000ms linear 0ms forwards;}.zkVOUqyN_11{stroke-dasharray:942 944;stroke-dashoffset:943;animation:zkVOUqyN_draw 2000ms linear 0ms forwards;}.zkVOUqyN_12{stroke-dasharray:942 944;stroke-dashoffset:943;animation:zkVOUqyN_draw 2000ms linear 0ms forwards;}.zkVOUqyN_13{stroke-dasharray:942 944;stroke-dashoffset:943;animation:zkVOUqyN_draw 2000ms linear 0ms forwards;}.zkVOUqyN_14{stroke-dasharray:942 944;stroke-dashoffset:943;animation:zkVOUqyN_draw 2000ms linear 0ms forwards;}.zkVOUqyN_15{stroke-dasharray:942 944;stroke-dashoffset:943;animation:zkVOUqyN_draw 2000ms linear 0ms forwards;}.zkVOUqyN_16{stroke-dasharray:589 591;stroke-dashoffset:590;animation:zkVOUqyN_draw 2000ms linear 0ms forwards;}.zkVOUqyN_17{stroke-dasharray:2142 2144;stroke-dashoffset:2143;animation:zkVOUqyN_draw 2000ms linear 0ms forwards;}.zkVOUqyN_18{stroke-dasharray:6 8;stroke-dashoffset:7;animation:zkVOUqyN_draw 2000ms linear 0ms forwards;}@keyframes zkVOUqyN_draw{100%{stroke-dashoffset:0;}}@keyframes zkVOUqyN_fade{0%{stroke-opacity:1;}93.54838709677419%{stroke-opacity:1;}100%{stroke-opacity:0;}}</style></svg>