<svg xmlns="http://www.w3.org/2000/svg" viewBox="0 0 779 929.87"><defs><style>.cls-1{fill:#2bb673;}.cls-2,.cls-3{fill:none;stroke:#2bb673;stroke-miterlimit:10;}.cls-2{stroke-width:9px;}.cls-3{stroke-width:5px;}</style></defs><g id="Layer_2" data-name="Layer 2"><g id="Layer_1-2" data-name="Layer 1"><path class="cls-1" d="M597,341.06V896.57a22.81,22.81,0,0,1-22.78,22.78H33.3a22.81,22.81,0,0,1-22.79-22.78V98.93A22.81,22.81,0,0,1,33.3,76.14H574.23a22.8,22.8,0,0,1,22,17c2.66-2.89,5.32-5.77,8-8.64a33.35,33.35,0,0,0-30-18.9H33.3A33.34,33.34,0,0,0,0,98.93V896.57a33.34,33.34,0,0,0,33.3,33.3H574.23a33.33,33.33,0,0,0,33.29-33.3V332.48Q602.38,336.93,597,341.06Z"/><line class="cls-2" x1="68.76" y1="167.78" x2="338.71" y2="167.78"/><line class="cls-2" x1="72.98" y1="264.19" x2="534.55" y2="264.19"/><line class="cls-2" x1="72.98" y1="360.6" x2="534.55" y2="360.6"/><line class="cls-2" x1="68.76" y1="449.54" x2="530.33" y2="449.54"/><line class="cls-2" x1="68.76" y1="545.95" x2="530.33" y2="545.95"/><line class="cls-2" x1="63.34" y1="642.37" x2="524.91" y2="642.37"/><line class="cls-3" x1="59.21" y1="843.51" x2="348.26" y2="843.51"/><path class="cls-1" d="M183.44,830.23c6.61,4.34,10.33-2.54,15.75-5.18v6.18c4.9-1.44,6.65-5.32,5.37-12l-4.25,2.64-1.38-.37c.42-1.77.35-3.92,1.36-5.23,2.24-2.87,5.15-2.36,8.31.16l10.31-1.06L218,822l-1.63-.06-3-3.23c-1.25,2.73-2.63,4.87-3.22,7.21-1.1,4.44,1.4,6.78,5,4.88a43.09,43.09,0,0,0,4.56-3.21l1.31,1.16c-1.76,2.09-3.18,4.68-5.36,6.18-3.79,2.61-7.62,1.52-10.84-1.63-3.42,2.24-6.56,4.5-10.64,1.43-.81-.61-3,.43-4.44.86-6.43,1.86-9.9.28-12.65-5.82-6.56-.45-6.56-.45-7.12-9.18-2.51,3.44-4.35,5.82-6,8.32-.79,1.19-1.11,2.69-1.9,3.87a33.58,33.58,0,0,1-3,3.42l-3.54-3.83c-3.83,1.86-7.62,4-9.29,9.24a47,47,0,0,1-6.56,12.18c-1.92,2.77-5,5.23-8.59,2.72s-1.83-6,0-8.51a81.32,81.32,0,0,1,8.53-9,61.87,61.87,0,0,1,5.26-4.12c-8.59,2.25-9.37,1.68-11-8.06-1.59,1.38-2.75,2.32-3.82,3.34-1.72,1.63-3.13,3.76-5.12,4.91-5,2.88-8.72,1-11.36-5.27-6.65-.53-6.65-.53-8-8.27-1.86,2.73-3.77,5.43-5.56,8.21-.69,1.07-.92,2.45-1.69,3.43a25.27,25.27,0,0,1-3.28,3c-.62-1.31-2-2.76-1.73-3.92a117,117,0,0,1,3.6-14.83c.45-1.42,2.55-2.31,3.89-3.45l1.29.87c-.86,2.9-1.71,5.81-2.87,9.71,2.78-3,4.68-5.68,7.14-7.61,1.57-1.24,4-1.43,6-2.09.08,1.91.25,3.82.21,5.72a31.44,31.44,0,0,1-.5,3.85l1.3.5c.72-1.06,1.38-2.17,2.18-3.15,1.5-1.84,2.81-4,4.69-5.33,5.92-4.16,10-2.12,13,6.92a37.73,37.73,0,0,0,4.7-2.49c1.28-.92,2.2-2.33,3.41-3.36,4-3.34,8.11-3.68,12.66.09-1.12,3.81-2.37,8-3.78,12.81,4.49-1.41,7.18-3.47,8.24-7.92.81-3.4,1.37-7.75,7.44-8l-3.07,9.28-.54-.83c2.84-2.27,5.54-4.75,8.58-6.72,1.41-.91,3.47-.8,5.24-1.15,0,1.64.2,3.3.09,4.93a38.27,38.27,0,0,1-.77,4.36l1.33.6a21.28,21.28,0,0,1,2.45-3.41c2.38-2.24,4.66-4.86,7.51-6.23,1.64-.79,5.22-.16,6.26,1.16s1.11,5.14,0,6.43C190.44,825.7,186.91,827.64,183.44,830.23Zm-59.17-11c-4.31,1.6-5.36,4.94-5,8.59.15,1.3,2.15,2.4,3.31,3.59,1.24-1.74,3.27-3.38,3.5-5.24C126.38,824.12,125,821.82,124.27,819.28Zm24.91-.56c-5.89,1.4-8,4.62-9.08,8.55-.31,1.14.38,2.56.61,3.85,1.33-.51,3.35-.63,3.87-1.58C146.26,826.45,147.4,823.06,149.18,818.72Zm-15.65,33.11,2,1.3q3.12-5.25,6.26-10.49l-1.36-.84C137.54,844.73,133.42,846.85,133.53,851.83Zm49.56-26.43,1.23,1.19,5.25-5.61-1.91-1.69Z"/><path class="cls-1" d="M317,830c4,2.77,10.91.7,12.59-4.07.9-2.56,1.37-5.32,2.61-7.7.89-1.7,2.73-2.91,4.15-4.34l1.43.92c-.39,1.41-.74,2.84-1.18,4.24s-1,3-1.44,4.19c2.66-2.41,5.25-5.09,8.2-7.29,1.2-.89,3.2-.72,4.83-1,.12,1.63.6,3.33.29,4.88a106.65,106.65,0,0,1-3.34,13c-.48,1.38-2.43,2.26-3.71,3.37-.39-1.52-1.29-3.13-1.07-4.56.51-3.24,1.57-6.39,2.4-9.58l-1.68-.87c-2.24,3.8-4.65,7.52-6.7,11.43-2.33,4.43-3.11,4.66-6.59,1.07-9.16,4-12,3.66-17.55-2.1-5,2.07-8.88,5-10.66,10.69a41.64,41.64,0,0,1-6.13,11.32c-2.05,2.88-5.26,5.64-8.93,2.87s-1.65-6.41.44-9a86.28,86.28,0,0,1,9.93-9.65c1.09-1,2.8-1.21,4.23-1.79l-1.83-2a63.29,63.29,0,0,1-6.22,2c-7.3,1.55-12-3.28-10.29-10.53,1.17-5,3.78-9,8.92-10.33,2-.5,5.28-.12,6.34,1.18s1.14,5.13,0,6.42c-2.49,2.86-6,4.82-9,7.1,3.13,3.12,11.4.74,13.28-4.54.86-2.4,1.05-5.08,2.15-7.35.78-1.61,2.57-2.74,3.91-4.08l1.87,1.1q-2.1,7.61-4.19,15.22l1.56,1c2-2.6,3.81-5.33,6-7.78,2.55-2.89,5.08-6,8.24-8.09,1.39-.93,5.45-.33,6.24.9,1.08,1.68,1.16,5.42,0,6.86C323.7,825.88,320.19,827.68,317,830Zm-29.37,22.25,1.57.91,6.37-10.68C289.36,844.82,287.24,847.91,287.65,852.26Zm-2.11-27.33,1,1.18c1.59-.81,3.43-1.35,4.69-2.52.79-.73.71-2.39,1-3.64-1.27.12-2.95-.23-3.71.45C287.25,821.57,286.51,823.38,285.54,824.93Zm30.58.27,1.16,1.3c1.84-1.75,3.7-3.47,5.44-5.3a14.26,14.26,0,0,0-1.51-1.9c-1.7,1.81-3.4,3.61-5.08,5.43C316.05,824.82,316.12,825,316.12,825.2Z"/><path class="cls-1" d="M251.39,815.41c2.19,0,4.36.41,6.25-.13a8.33,8.33,0,0,0,4.37-3.13c3-4.49,5.17-9.55,8.52-13.72,1.4-1.75,4.91-1.8,7.47-2.63.54,2.63,1.89,5.4,1.48,7.87-1.06,6.24-5.19,10.42-10.8,13.23-3.54,1.77-5.46,9.74-3.13,12.94,2,2.78,4.56,1.86,6.82.48a56.58,56.58,0,0,0,5.33-4.23c.18,4.93-5.28,10-10.67,10.21-6,.27-7.9-3.64-7.83-16.39a3.68,3.68,0,0,0-.83-.33c-7.37-1-11.05,2.59-12.45,9.52a13.68,13.68,0,0,1-2.7,5.53c-.67.85-2.4.87-3.66,1.26-.21-1.17-.88-2.49-.56-3.49,1.15-3.64,2.63-7.17,3.71-10l-4.06-3.71c1.35-.81,2.78-1.52,4-2.44s2.63-1.69,3.11-2.89a35.85,35.85,0,0,0,2-7.87c.19-1.25-.14-3.48-.85-3.78a5.34,5.34,0,0,0-4.31.5c-2.24,1.44-4.14,3.42-7.16,4.9.44-1.4.45-3.37,1.41-4.11,3.1-2.39,6.33-4.9,9.92-6.31,4.24-1.68,7.36.92,7,5.58C253.48,806.49,252.3,810.68,251.39,815.41ZM267,811.82c7.67-1.74,10.94-7.67,7.87-14.39Z"/><path class="cls-1" d="M58.87,829.55c1-9.4,3.4-17.92,9.61-25a23.89,23.89,0,0,1,15.8-8.26c4.46-.49,8.87.23,11.58,4.26s1.87,8.33-.26,12.33a17,17,0,0,1-13.23,9.31c-3.79.49-5.57,2.24-6.26,5.81a47.74,47.74,0,0,1-2,6.41c-1.28,3.69-3.22,7-7.71,6.55s-6.42-3.79-7.14-7.91C59,831.81,59,830.53,58.87,829.55Zm20.66-11.27c5.67-.37,9-2.73,10.74-7.11,2.57-6.43-.94-11.3-7.73-10.09a19.45,19.45,0,0,0-9.6,4.74c-6.82,6.54-9.23,15.17-9.23,24.41,0,1.87,1.28,3.73,2,5.6l1.82-.16,4.33-11.85c-1.79-1.59-5.71-3.69-1.61-5s4.1-3.77,5.15-6.38c.59-1.48.74-3.34,1.75-4.4s2.86-1.36,4.33-2c.21,1.27.78,2.63.54,3.81C81.45,812.53,80.51,815.06,79.53,818.28Z"/><path class="cls-1" d="M306.78,812.67c-1.58-2-3.36-3.84-3.13-4.16a35,35,0,0,1,4.61-4.58c.94,1,2.86,2.49,2.63,3.05C310.15,808.79,308.62,810.27,306.78,812.67Z"/><path class="cls-1" d="M287.65,852.26c-.41-4.35,1.71-7.44,7.94-9.77l-6.37,10.68Z"/><path class="cls-1" d="M336.28,602.22,68.76,334.49l63.46-63.3c1.63,1.84,3.73,4.47,6.09,6.83Q225.1,364.54,312,451c4.62,4.6,9.49,9,14.37,13.29,4.25,3.77,4.4,3.71,7.91-.62q52.85-65.1,105.67-130.22Q566.52,177.24,693.11,21c5.23-6.45,10.88-12.54,16.3-18.84,2.37-2.76,4.37-2.93,7.4-.42C735.53,17.29,754.49,32.51,773.23,48c7.6,6.29,7.38,6.45,1.19,14.08Q663.17,199.24,551.93,336.4q-106.17,131-212.3,262C338.61,599.61,337.51,600.8,336.28,602.22Z"/></g></g></svg>